<svg xmlns="http://www.w3.org/2000/svg" viewBox="0 0 220 48" role="img" aria-label="Sat1_Kolay">
  <defs>
    <linearGradient id="skGrad" x1="0%" y1="0%" x2="100%" y2="100%">
      <stop offset="0%" stop-color="#1FA6A8"/>
      <stop offset="100%" stop-color="#176B87"/>
    </linearGradient>
  </defs>
  <!-- Icon: car + cycle arrows + check -->
  <g transform="translate(2,4)">
    <circle cx="20" cy="20" r="18.5" fill="none" stroke="url(#skGrad)" stroke-width="1.6" opacity="0.35"/>
    <!-- Cycle arrows -->
    <path d="M8 14c2-5 8-8 14-6" fill="none" stroke="#1FA6A8" stroke-width="2" stroke-linecap="round"/>
    <path d="M20 6l2.2 4.2-4.5-.2" fill="#1FA6A8"/>
    <path d="M32 26c-2 5-8 8-14 6" fill="none" stroke="#176B87" stroke-width="2" stroke-linecap="round"/>
    <path d="M20 34l-2.2-4.2 4.5.2" fill="#176B87"/>
    <!-- Minimal car -->
    <path d="M11 24h18l-1.5-4.2c-.4-1.1-1.4-1.8-2.5-1.8h-10c-1.1 0-2.1.7-2.5 1.8L11 24z" fill="#173042"/>
    <rect x="12.5" y="24" width="15" height="3.2" rx="1" fill="#173042"/>
    <circle cx="15" cy="28.2" r="1.7" fill="#1FA6A8"/>
    <circle cx="25" cy="28.2" r="1.7" fill="#1FA6A8"/>
    <!-- Check badge -->
    <circle cx="31" cy="12" r="5.2" fill="#37B878"/>
    <path d="M28.6 12l1.6 1.6 3.2-3.2" fill="none" stroke="#fff" stroke-width="1.5" stroke-linecap="round" stroke-linejoin="round"/>
  </g>
  <!-- Wordmark -->
  <text x="48" y="31" font-family="Quicksand, Arial, sans-serif" font-size="22" font-weight="700">
    <tspan fill="#173042">sat1_</tspan><tspan fill="#1FA6A8">kolay</tspan>
  </text>
</svg>
